<svg width="54" height="54" viewBox="0 0 54 54" fill="none" xmlns="http://www.w3.org/2000/svg">
<path d="M11.25 6.75C8.76825 6.75 6.75 8.76825 6.75 11.25V42.75C6.75 45.2318 8.76825 47.25 11.25 47.25H26.1475H32.4316H42.75C45.2318 47.25 47.25 45.2318 47.25 42.75V11.25C47.25 8.76825 45.2318 6.75 42.75 6.75H11.25ZM11.25 11.25H42.75L42.7544 42.75H32.4316V33.8291H37.7534L38.5444 27.6987H32.4668V23.792C32.4668 22.019 32.9609 20.8213 35.5034 20.8213H38.7158V15.3501C37.1521 15.1903 35.582 15.1127 34.0093 15.1172C29.3428 15.1172 26.1475 17.9653 26.1475 23.1943V27.7075H20.874V33.8379H26.1475V42.75H11.25V11.25Z" fill="white"/>
</svg>
