<svg width="54" height="54" viewBox="0 0 54 54" fill="none" xmlns="http://www.w3.org/2000/svg">
<path d="M18 6.75C11.7968 6.75 6.75 11.7968 6.75 18V36C6.75 42.2033 11.7968 47.25 18 47.25H36C42.2033 47.25 47.25 42.2033 47.25 36V18C47.25 11.7968 42.2033 6.75 36 6.75H18ZM18 11.25H36C39.7215 11.25 42.75 14.2785 42.75 18V36C42.75 39.7215 39.7215 42.75 36 42.75H18C14.2785 42.75 11.25 39.7215 11.25 36V18C11.25 14.2785 14.2785 11.25 18 11.25ZM38.25 13.5C37.6533 13.5 37.081 13.7371 36.659 14.159C36.2371 14.581 36 15.1533 36 15.75C36 16.3467 36.2371 16.919 36.659 17.341C37.081 17.7629 37.6533 18 38.25 18C38.8467 18 39.419 17.7629 39.841 17.341C40.2629 16.919 40.5 16.3467 40.5 15.75C40.5 15.1533 40.2629 14.581 39.841 14.159C39.419 13.7371 38.8467 13.5 38.25 13.5ZM27 15.75C20.7968 15.75 15.75 20.7968 15.75 27C15.75 33.2033 20.7968 38.25 27 38.25C33.2033 38.25 38.25 33.2033 38.25 27C38.25 20.7968 33.2033 15.75 27 15.75ZM27 20.25C30.7215 20.25 33.75 23.2785 33.75 27C33.75 30.7215 30.7215 33.75 27 33.75C23.2785 33.75 20.25 30.7215 20.25 27C20.25 23.2785 23.2785 20.25 27 20.25Z" fill="white"/>
</svg>
