<?xml version="1.0" encoding="UTF-8"?>
<!DOCTYPE svg PUBLIC "-//W3C//DTD SVG 1.1//EN" "http://www.w3.org/Graphics/SVG/1.1/DTD/svg11.dtd">
<!-- Creator: CorelDRAW 2020 (64 Bit) -->
<svg xmlns="http://www.w3.org/2000/svg" xml:space="preserve" width="49.6958mm" height="19.5866mm" version="1.1" style="shape-rendering:geometricPrecision; text-rendering:geometricPrecision; image-rendering:optimizeQuality; fill-rule:evenodd; clip-rule:evenodd"
viewBox="0 0 4969.58 1958.66"
 xmlns:xlink="http://www.w3.org/1999/xlink"
 xmlns:xodm="http://www.corel.com/coreldraw/odm/2003">
 <defs>
  <style type="text/css">
   <![CDATA[
    .fil0 {fill:white}
    .fil1 {fill:white;fill-rule:nonzero}
   ]]>
  </style>
 </defs>
 <g id="Camada_x0020_1">
  <metadata id="CorelCorpID_0Corel-Layer"/>
  <path class="fil0" d="M1880.05 395.82c8.45,-48.51 10.57,-90.68 25.36,-145.53 14.76,-40.85 38.89,-72.32 72.76,-97.01 40.24,-19.04 80.68,-30.55 126.78,-23.15 156.05,25.08 316.06,112.27 464.15,152.15 40.81,7.22 84.91,10.6 125.73,8.97 -139.59,-35.9 -240.52,-81.57 -304.58,-138.77 -58.02,-45.33 -121.13,-79.33 -187.97,-105.58 -38.14,-21.5 -81.04,-29.77 -122.11,-33.63 -49.09,-0.66 -93.72,7.48 -128.44,31.15 -30.08,16.47 -58.32,36.15 -78.54,70.28 -17.12,23.82 -31.08,58.02 -30.18,101.57 -2.57,60.64 11.7,120.38 37.04,179.55z"/>
  <path class="fil0" d="M2491.48 124.69c146.58,-44.13 398.01,-3.37 458.66,161.3 54.75,148.86 41.52,203.76 41.52,203.76 0,0 147.09,-33.37 147.09,-33.37 11.1,-72.79 -12.23,-277.84 -61.76,-362.77 -67.19,-132.24 -381.3,-140.45 -585.51,31.08z"/>
  <path class="fil0" d="M1213.2 499.09c343,84.14 710.27,127.52 1094.44,123.47 0,22.78 0.56,50.81 0.56,73.59 42.63,1.47 83.32,-2.3 125.95,-0.83 0.74,-24.25 -1.57,-56.78 -0.83,-81.03 31.6,-2.94 63.77,-3.13 95.37,-6.07 0.73,27.93 0.09,61.38 0.82,89.31 40.42,0 86.08,0 126.5,0 1.84,-29.4 -1.54,-58.8 0.3,-88.2 332.25,-29.75 654.89,-124.39 855.59,-252.44 -267.02,109.03 -547.65,183.19 -854.4,203.95 0,-22.05 0,-46.86 0,-68.91 -42.27,-0.35 -87.58,2.6 -129.85,2.25 -0.73,26.09 1.02,57.15 0.29,83.24 -30.74,2.61 -61.34,3.68 -92.06,6.61 -0.37,-30.5 -0.73,-61 -1.1,-91.5 -42.47,-0.73 -84.93,-1.46 -127.4,-2.19 0.17,31.97 0.34,63.95 0.51,95.92 -384.2,12.78 -745.75,-23.49 -1094.69,-87.17z"/>
  <path class="fil0" d="M2992.76 582.81c44.83,-10.29 89.67,-20.58 134.5,-30.87 -34,246.06 -99,479.01 -244.76,677.99 -28.76,31.79 -60.19,58.25 -94.82,78.28 -50.3,20.39 -95.94,18.2 -138.91,3.31 -64.63,-26.15 -100.32,-68.74 -120.99,-113.28 104.86,85.42 181.84,116.65 281.4,0.83 82.62,-92.41 181.8,-400.01 183.58,-616.26z"/>
  <path class="fil0" d="M2518.24 1016.52c14.13,-54.55 11.95,-104.21 -3.31,-149.94 -31.23,-56.06 -64.27,-63.6 -95.4,-39.82 -33,14.27 -61.76,124.64 -63.36,193.07 -13.85,86.44 -24.53,222.62 -83.78,266.65 -24.57,19.41 -69.92,21.37 -111.32,-4.28 18.89,30.63 49.46,58.4 91.5,59.81 57.56,-4.08 88.57,-61.9 114.66,-116.03 35.55,-88.88 51.94,-175.36 63.94,-261.29 3.16,-25.61 7.68,-45.82 25.35,-59.53 10.48,-8.74 22.1,-9.24 34.18,0.55 25.61,35.07 28.74,71.89 27.54,110.81z"/>
  <path class="fil1" d="M75.12 1895.33l0 -255.5 60.36 0c77.94,0 108.41,35.16 108.41,123.06 0,87.9 -30.47,132.44 -101.38,132.44l-67.39 0zm83.8 66.22c100.79,0 168.18,-80.28 168.18,-198.66 0,-118.37 -75.01,-190.45 -180.49,-190.45l-150.6 0 0 389.11 162.91 0zm270.74 0l0 -150.02c0,-46.29 22.85,-69.73 69.73,-69.73 7.03,0 14.07,0.58 21.1,1.75l0 -77.94 -9.96 0c-31.06,0 -60.36,3.52 -85.56,42.2l0 -34.58 -71.49 0 0 288.32 76.18 0zm272.49 -109.58c-0.59,33.98 -29.89,62.7 -69.15,62.7 -24.03,0 -36.92,-10.55 -36.92,-32.23 0,-24.61 14.06,-36.92 57.43,-45.12 28.13,-5.28 41.61,-9.38 49.22,-17l-0.58 31.65zm76.76 109.58l0 -182.25c0,-72.66 -31.64,-113.69 -123.06,-113.69 -92.59,0 -125.4,41.61 -126.58,101.38l70.91 0c3.52,-25.78 17.58,-42.77 52.16,-42.77 29.88,0 48.64,11.13 48.64,29.88 0,19.93 -10.55,27.54 -48.64,32.82 -76.77,10.55 -132.44,19.92 -132.44,103.14 0,46.88 30.47,79.11 96.1,79.11 38.68,0 69.15,-13.48 87.32,-33.4 0.59,8.79 2.34,18.75 4.69,25.78l70.9 0zm113.1 0l0 -79.11 -81.45 0 0 79.11 81.45 0zm366.26 0l131.85 -389.11 -84.39 0 -84.38 273.08 -84.97 -273.08 -86.73 0 131.85 389.11 76.77 0zm275.43 -109.58c-0.59,33.98 -29.89,62.7 -69.15,62.7 -24.03,0 -36.92,-10.55 -36.92,-32.23 0,-24.61 14.06,-36.92 57.43,-45.12 28.13,-5.28 41.61,-9.38 49.22,-17l-0.58 31.65zm76.76 109.58l0 -182.25c0,-72.66 -31.64,-113.69 -123.06,-113.69 -92.59,0 -125.4,41.61 -126.58,101.38l70.91 0c3.52,-25.78 17.58,-42.77 52.16,-42.77 29.88,0 48.64,11.13 48.64,29.88 0,19.93 -10.55,27.54 -48.64,32.82 -76.77,10.55 -132.44,19.92 -132.44,103.14 0,46.88 30.47,79.11 96.1,79.11 38.68,0 69.15,-13.48 87.32,-33.4 0.59,8.79 2.34,18.75 4.69,25.78l70.9 0zm-44.53 -328.75l26.95 -29.89 -75.01 -78.52 -62.11 0 -75.01 78.52 26.96 29.89 79.11 -69.15 79.11 69.15zm339.3 328.75l0 -199.83c0,-62.7 -40.44,-96.11 -95.52,-96.11 -46.3,0 -75.6,17.59 -93.18,49.82l0 -42.2 -72.66 0 0 288.32 76.18 0 0 -165.25c0,-43.96 19.34,-66.22 59.18,-66.22 36.34,0 49.23,12.3 49.23,56.84l0 174.63 76.77 0zm111.34 0l0 -288.32 -76.19 0 0 288.32 76.19 0zm0 -322.89l0 -70.91 -76.19 0 0 70.91 76.19 0zm209.2 213.31c-0.59,33.98 -29.89,62.7 -69.15,62.7 -24.03,0 -36.92,-10.55 -36.92,-32.23 0,-24.61 14.06,-36.92 57.43,-45.12 28.13,-5.28 41.61,-9.38 49.22,-17l-0.58 31.65zm76.76 109.58l0 -182.25c0,-72.66 -31.64,-113.69 -123.06,-113.69 -92.59,0 -125.4,41.61 -126.58,101.38l70.91 0c3.52,-25.78 17.58,-42.77 52.16,-42.77 29.88,0 48.64,11.13 48.64,29.88 0,19.93 -10.55,27.54 -48.64,32.82 -76.77,10.55 -132.44,19.92 -132.44,103.14 0,46.88 30.47,79.11 96.1,79.11 38.68,0 69.15,-13.48 87.32,-33.4 0.59,8.79 2.34,18.75 4.69,25.78l70.9 0zm425.45 -164.08l0 -68.57 -171.12 0 0 -88.48 195.73 0 0 -67.98 -277.18 0 0 389.11 81.45 0 0 -164.08 171.12 0zm95.52 -8.21c2.93,-39.85 28.12,-63.29 58.6,-63.29 29.88,0 58.01,20.51 59.18,63.29l-117.78 0zm196.31 48.06c0,-114.28 -46.88,-171.71 -135.37,-171.71 -88.49,0 -139.47,57.43 -139.47,146.51 0,104.31 48.05,157.05 144.16,157.05 61.53,0 109,-33.4 126.58,-92.59l-78.53 0c-5.27,19.92 -26.96,32.23 -51.57,32.23 -37.5,0 -62.11,-28.13 -64.46,-71.49l198.66 0zm102.55 124.23l0 -150.02c0,-46.29 22.85,-69.73 69.73,-69.73 7.03,0 14.07,0.58 21.1,1.75l0 -77.94 -9.96 0c-31.06,0 -60.36,3.52 -85.56,42.2l0 -34.58 -71.49 0 0 288.32 76.18 0zm373.29 0l0 -199.83c0,-62.7 -40.44,-96.11 -95.52,-96.11 -46.3,0 -75.6,17.59 -93.18,49.82l0 -42.2 -72.66 0 0 288.32 76.18 0 0 -165.25c0,-43.96 19.34,-66.22 59.18,-66.22 36.34,0 49.23,12.3 49.23,56.84l0 174.63 76.77 0zm208.03 -109.58c-0.59,33.98 -29.89,62.7 -69.15,62.7 -24.03,0 -36.92,-10.55 -36.92,-32.23 0,-24.61 14.06,-36.92 57.43,-45.12 28.13,-5.28 41.61,-9.38 49.22,-17l-0.58 31.65zm76.76 109.58l0 -182.25c0,-72.66 -31.64,-113.69 -123.06,-113.69 -92.59,0 -125.4,41.61 -126.58,101.38l70.91 0c3.52,-25.78 17.58,-42.77 52.16,-42.77 29.88,0 48.64,11.13 48.64,29.88 0,19.93 -10.55,27.54 -48.64,32.82 -76.77,10.55 -132.44,19.92 -132.44,103.14 0,46.88 30.47,79.11 96.1,79.11 38.68,0 69.15,-13.48 87.32,-33.4 0.59,8.79 2.34,18.75 4.69,25.78l70.9 0zm294.77 0l0 -199.83c0,-62.7 -40.44,-96.11 -95.52,-96.11 -46.3,0 -75.6,17.59 -93.18,49.82l0 -42.2 -72.66 0 0 288.32 76.18 0 0 -165.25c0,-43.96 19.34,-66.22 59.18,-66.22 36.34,0 49.23,12.3 49.23,56.84l0 174.63 76.77 0zm169.94 -54.5c-38.09,0 -65.05,-35.75 -65.05,-87.31 0,-59.19 21.1,-89.08 65.63,-89.08 42.2,0 63.88,31.06 63.88,93.76 0,48.64 -28.13,82.63 -64.46,82.63zm136.54 54.5l0 -393.8 -75.01 0 0 142.99c-21.68,-30.47 -49.81,-45.13 -85.56,-45.13 -74.42,0 -118.37,61.54 -118.37,148.85 0,97.28 52.15,154.71 124.82,154.71 35.16,0 62.11,-13.48 80.28,-42.78l0.59 35.16 73.25 0zm105.48 -172.29c2.93,-39.85 28.12,-63.29 58.6,-63.29 29.88,0 58.01,20.51 59.18,63.29l-117.78 0zm196.31 48.06c0,-114.28 -46.88,-171.71 -135.37,-171.71 -88.49,0 -139.47,57.43 -139.47,146.51 0,104.31 48.05,157.05 144.16,157.05 61.53,0 109,-33.4 126.58,-92.59l-78.53 0c-5.27,19.92 -26.96,32.23 -51.57,32.23 -37.5,0 -62.11,-28.13 -64.46,-71.49l198.66 0zm273.08 -76.77c-4.11,-62.12 -41.61,-94.94 -124.82,-94.94 -87.91,0 -121.31,36.92 -121.31,85.56 0,25.79 9.38,48.06 36.33,65.05 20.52,12.89 47.47,21.1 96.11,32.82 24.61,5.86 46.3,12.3 46.3,32.81 0,21.69 -24.03,29.89 -50.99,29.89 -36.92,0 -59.77,-15.82 -59.77,-42.78l-78.53 0c1.18,58.6 50.4,100.21 138.89,100.21 82.04,0 125.99,-35.75 125.99,-95.52 0,-37.51 -16.99,-57.43 -47.47,-69.74 -22.26,-8.79 -53.32,-15.23 -86.14,-24.61 -31.06,-8.79 -46.88,-15.82 -46.88,-32.82 0,-16.99 16.41,-24.02 45.12,-24.02 34.58,0 49.81,9.96 53.92,38.09l73.25 0z"/>
 </g>
</svg>
